<svg version="1.2" xmlns="http://www.w3.org/2000/svg" viewBox="0 0 707 606" width="707" height="606">
	<style>
		.s0 { opacity: 1;fill: #2eb578 } 
		.s1 { opacity: .5;fill: #40b578 } 
		.s2 { opacity: .99;fill: #e9a234 } 
		.s3 { opacity: .51;fill: #eaa241 } 
	</style>
	<g id="Background">
		<path id="Path 0" fill-rule="evenodd" class="s0" d="m375.5 61.72c7.15 0.19 18.85 1.03 26 1.87 7.15 0.84 18.4 2.61 25 3.93 6.6 1.32 16.05 3.57 21 5.01 4.95 1.44 13.05 4.13 18 5.98 4.95 1.85 13.05 5.28 18 7.62 4.95 2.33 13.27 6.71 18.5 9.71 5.23 3.01 12.2 7.27 15.5 9.47 3.3 2.2 10.27 7.41 15.5 11.59 5.23 4.18 13.95 11.87 19.39 17.1 5.44 5.22 13.47 13.78 17.85 19 4.38 5.22 10.62 13.21 13.86 17.75 3.25 4.54 8.68 13.09 12.08 19 3.4 5.91 8.07 15.03 10.39 20.25 2.31 5.22 5.86 14.22 7.87 20 2.02 5.78 4.98 15.45 6.59 21.5 1.6 6.05 3.87 16.62 5.04 23.5 1.56 9.17 2.27 18.63 2.65 35.5 0.32 14.55 0.08 27.04-0.67 34-0.65 6.05-2.32 16.62-3.7 23.5-1.38 6.87-4.97 19.93-7.97 29-3.01 9.07-8.18 22.12-11.5 29-3.31 6.87-8.34 16.32-11.16 21-2.82 4.68-7.67 12.1-10.79 16.5-3.12 4.4-8.09 10.95-11.05 14.56-2.96 3.61-8.53 10.06-12.38 14.34-3.85 4.28-11.73 11.92-17.5 16.99-5.77 5.07-13.2 11.27-16.5 13.78-3.3 2.5-10.5 7.51-16 11.11-5.5 3.61-15.4 9.26-22 12.55-6.6 3.29-15.38 7.32-19.5 8.96-4.13 1.63-12 4.41-17.5 6.17-5.5 1.76-14.73 4.26-20.5 5.56-5.77 1.3-15.23 3.08-21 3.97-5.77 0.89-19.05 1.88-29.5 2.21-11.86 0.37-23.89 0.13-32-0.62-7.15-0.67-19.07-2.33-26.5-3.69-7.43-1.36-18.23-3.86-24-5.55-5.77-1.68-11.29-3.24-12.25-3.45-0.96-0.22-1.75-0.84-1.75-1.39 0-0.55-0.45-0.77-1-0.5-0.55 0.27-5.16-1.12-10.25-3.11-5.09-1.98-15-6.6-22.03-10.25-12.51-6.49-12.88-6.62-17-5.52-2.32 0.61-13 3.45-23.72 6.32-10.72 2.86-26.47 7.04-35 9.29-8.53 2.25-16.51 4.13-17.75 4.18-1.24 0.05-2.25 0.43-2.25 0.84 0 0.41-1.69 1.02-3.75 1.34-2.06 0.32-5.21 0.32-7 0-1.79-0.32-3.03-1.04-2.75-1.59 0.28-0.55-0.06-0.75-0.75-0.44-0.69 0.31-2.71-1.04-4.5-3-2.76-3.02-3.25-4.32-3.25-8.56 0-2.75 1.56-13.44 3.46-23.75 1.9-10.31 5.51-30 12.6-68.75l-10-20c-5.5-11-11.65-24.5-13.66-30-2.01-5.5-5.12-15.85-6.92-23-1.81-7.15-4-17.27-4.88-22.5-0.88-5.23-2.07-16.25-2.64-24.5-0.58-8.25-0.77-21.3-0.42-29 0.34-7.7 1.48-20.07 2.53-27.5 1.05-7.43 3.23-18.9 4.84-25.5 1.62-6.6 4.59-16.95 6.61-23 2.02-6.05 7.04-17.97 11.15-26.5 4.11-8.53 10.42-20 14.03-25.5 3.61-5.5 9.52-13.82 13.14-18.5 3.61-4.68 11.99-14.06 18.62-20.85 6.62-6.8 16.09-15.63 21.04-19.62 4.95-4 13.95-10.62 20-14.72 6.05-4.09 14.82-9.53 19.5-12.08 4.68-2.55 12.78-6.5 18-8.77 5.23-2.27 14.68-5.92 21-8.11 6.32-2.19 16.9-5.27 23.5-6.84 6.6-1.58 16.95-3.63 23-4.57 6.05-0.94 16.63-2.01 23.5-2.39 6.87-0.37 18.35-0.52 25.5-0.33zm-44 48.38c-6.6 1.11-15.38 2.86-19.5 3.9-4.13 1.05-12.45 3.67-18.5 5.83-6.05 2.16-15.27 5.93-20.5 8.37-5.23 2.45-13.55 6.96-18.5 10.04-4.95 3.07-11.99 7.76-15.64 10.42-3.66 2.66-11.26 8.89-16.9 13.84-5.64 4.95-13.83 13.28-18.21 18.5-4.37 5.22-11.25 14.45-15.29 20.5-4.04 6.05-9.83 16.18-12.87 22.5-3.04 6.32-7.15 16.22-9.14 22-1.98 5.78-4.69 15-6.02 20.5-1.32 5.5-3.05 14.73-3.84 20.5-0.79 5.77-1.74 14.77-2.1 20-0.36 5.23-0.16 16.02 0.45 24 0.61 7.98 1.8 18.32 2.64 23 0.85 4.68 2.86 13.23 4.46 19 1.61 5.77 4.76 15.23 7.01 21 2.24 5.77 6.33 14.77 9.08 20 2.76 5.23 7.09 12.65 9.63 16.5 2.99 4.54 4.76 8.41 5.03 11 0.23 2.28-1.8 16.07-4.72 32-2.82 15.4-5.34 29.01-5.6 30.25-0.26 1.25 0.08 2.49 0.78 2.79 0.69 0.3 12.28-2.39 25.75-5.97 13.47-3.58 26.07-6.98 28-7.54 1.93-0.57 5.53-1.03 8-1.02 3.51 0 6.26 1.02 12.5 4.59 4.4 2.53 12.73 6.97 18.5 9.87 5.77 2.9 15 6.95 20.5 9 5.5 2.05 14.05 4.8 19 6.1 4.95 1.31 14.85 3.37 22 4.58 10.59 1.8 16.98 2.21 34.5 2.22 15.96 0.01 24.07-0.43 31.5-1.72 5.5-0.96 14.5-2.88 20-4.28 5.5-1.4 14.73-4.33 20.5-6.5 5.77-2.18 15.23-6.28 21-9.11 5.77-2.84 15.9-8.77 22.5-13.19 6.6-4.42 14.7-10.25 18-12.95 3.3-2.7 9.52-8.33 13.83-12.51 4.3-4.19 10.66-10.98 14.13-15.11 3.47-4.13 9.73-12.56 13.92-18.75 4.19-6.19 9.87-15.75 12.62-21.25 2.75-5.5 6.54-13.71 8.43-18.25 1.88-4.54 4.82-13.2 6.52-19.25 1.71-6.05 4.01-15.95 5.11-22 1.1-6.05 2.28-16.63 2.61-23.5 0.34-6.88 0.33-15.09-0.03-18.25-0.59-5.35-0.87-5.83-3.89-6.94-1.79-0.66-7.64-3.36-13-6-7.17-3.54-11.67-6.62-17-11.66-3.99-3.77-8.86-9.51-10.84-12.75-1.97-3.25-4.84-9.28-6.37-13.4-2.29-6.17-2.86-9.63-3.26-19.5-0.37-9.06-0.08-13.71 1.17-19 0.91-3.85 2.45-8.8 3.41-11 0.97-2.2 3.41-6.47 5.42-9.5 2.02-3.03 3.68-6.51 3.69-7.75 0.02-1.24-2.1-5.06-4.7-8.5-2.6-3.44-9.02-10.56-14.25-15.83-5.24-5.27-12.67-12.07-16.52-15.1-3.85-3.04-11.27-8.32-16.5-11.75-5.23-3.43-15.8-9.32-23.5-13.09-7.7-3.77-18.05-8.26-23-9.98-4.95-1.72-13.27-4.24-18.5-5.6-5.23-1.36-14.9-3.39-21.5-4.51-8.49-1.44-17.84-2.13-32-2.36-11-0.18-21.8-0.13-24 0.12-2.2 0.24-9.4 1.35-16 2.45z"/>
		<path id="Path 1" class="s1" d="m180.98 137.75l-8.48 8.75c13.57-13.18 17.51-17.11 17.51-17.25-0.01-0.14-0.13-0.25-0.28-0.25-0.15 0-4.09 3.94-8.75 8.75zm448.42 180.25c0 7.98 0.15 11.35 0.34 7.5 0.19-3.85 0.19-10.38 0-14.5-0.19-4.13-0.34-0.98-0.34 7zm-262.4 256.73c1.92 0.21 5.3 0.21 7.5 0 2.2-0.22 0.62-0.39-3.5-0.39-4.13 0-5.93 0.17-4 0.39z"/>
		<path id="Path 2" fill-rule="evenodd" class="s2" d="m369 147.1c4.68-0.05 11.43 0.4 15 0.98 3.57 0.59 9.2 2 12.5 3.13 3.3 1.14 8.48 3.31 11.5 4.82 3.02 1.52 8.2 4.75 11.5 7.19 3.3 2.44 8.86 7.32 12.35 10.86 3.5 3.53 8.92 10.24 12.05 14.92 3.13 4.68 7.09 11.88 8.81 16 1.71 4.13 3.65 10.2 4.31 13.5 0.72 3.63 0.97 9.74 0.62 15.5-0.31 5.22-0.88 11.97-1.26 15-0.58 4.6-0.36 6.07 1.4 9 1.15 1.93 9.16 10.02 17.79 18 9.22 8.52 16.25 15.84 17.06 17.75 0.75 1.79 1.38 4.94 1.4 7 0.02 2.29-0.88 5.11-2.3 7.25-1.28 1.93-3.88 4.53-5.78 5.78-2.25 1.49-4.83 2.24-7.45 2.18-2.2-0.06-4.77-0.41-5.71-0.78-0.94-0.37-8.14-7.04-16-14.82-12.02-11.9-15.4-14.66-21.29-17.4-6.22-2.9-7.61-3.19-12.5-2.6-3.02 0.37-8.87 0.94-13 1.27-5.38 0.44-9.34 0.14-14-1.05-3.57-0.9-9.2-2.91-12.5-4.44-3.3-1.54-8.7-4.99-12-7.66-3.3-2.67-11.08-9.61-17.29-15.42-6.2-5.81-12.5-11.18-14-11.93-2.42-1.22-2.84-1.17-3.98 0.5-0.69 1.03-1.27 3-1.27 4.37-0.01 1.38 0.63 4.07 1.42 6 0.78 1.93 3.43 6.2 5.87 9.5 2.45 3.3 7.1 8.51 10.35 11.57 3.24 3.06 9.28 8.06 13.4 11.1 4.13 3.05 15.6 11.07 25.5 17.83 9.9 6.76 21.6 15.01 26 18.33 4.4 3.32 11.76 9.67 16.36 14.11 4.59 4.43 10.28 10.54 12.62 13.56 2.35 3.02 5.87 8.43 7.82 12 1.95 3.57 4.42 9.2 5.49 12.5 1.07 3.3 2.3 8.48 2.73 11.5 0.43 3.02 0.74 8.88 0.69 13-0.05 4.13-0.74 10.65-1.54 14.5-0.8 3.85-2.84 10.6-4.54 15-1.69 4.4-5 10.94-7.35 14.53-2.36 3.59-6.76 9.38-9.78 12.85-3.02 3.47-8.65 8.72-12.5 11.66-3.85 2.93-10.6 7.04-15 9.13-7.09 3.37-8.85 3.79-15.5 3.76-5.31-0.02-8.52-0.57-11-1.87-1.93-1.02-12.27-10.5-23-21.07-10.73-10.57-21.07-20.01-23-20.98-2.72-1.37-4.84-1.62-9.5-1.14-3.3 0.35-10.27 0.91-15.5 1.25-7.15 0.47-11.11 0.22-16-1-3.57-0.9-10.1-3.4-14.5-5.56-4.4-2.17-11.32-6.78-15.39-10.25-4.06-3.47-10.08-9.91-13.37-14.31-3.3-4.4-7.68-11.37-9.75-15.5-2.06-4.12-4.93-11.21-6.37-15.75-1.44-4.54-3.1-12.19-3.69-17-0.76-6.29-0.75-11 0.05-16.75 0.61-4.4 2.01-10.02 3.12-12.5 1.12-2.48 3.12-5.96 4.46-7.75 1.35-1.8 5.23-4.62 8.69-6.32 5.12-2.51 7.88-3.16 15.25-3.58 7.57-0.43 10.59-0.09 19 2.1 5.5 1.43 14.05 4.53 19 6.89 4.95 2.35 11.93 6.25 15.5 8.68 3.57 2.42 9.93 7.79 14.12 11.94 4.2 4.15 9.63 10.69 12.08 14.54 2.44 3.85 5.38 9.25 6.52 12 1.14 2.75 2.63 7.7 3.3 11 0.68 3.3 1.28 12.15 1.48 33.31l3.1 3.85c1.7 2.11 5.27 5.19 7.92 6.84 4.48 2.79 5.5 3 14.4 3 7.45 0 10.36-0.42 13.08-1.87 1.93-1.04 5.3-3.31 7.5-5.06 2.41-1.93 5.29-5.74 7.25-9.63 1.78-3.54 3.51-8.69 3.84-11.44 0.32-2.75 0.09-7.7-0.52-11-0.61-3.3-2.49-8.93-4.18-12.5-2.18-4.62-5.29-8.69-10.73-14.07-4.24-4.2-12.79-10.93-19.16-15.11-6.32-4.15-18.93-12.39-28-18.32-9.07-5.93-19.87-13.34-24-16.48-4.12-3.13-10.2-8.18-13.5-11.21-3.3-3.03-8.55-8.84-11.66-12.91-3.12-4.07-7.04-10.1-8.71-13.4-1.67-3.3-3.97-8.7-5.12-12-1.14-3.3-2.74-9.82-3.56-14.5-0.81-4.68-1.47-11.09-1.46-14.25 0.01-3.16 0.52-9.01 1.14-13 0.62-3.99 2.21-10.4 3.54-14.25 1.32-3.85 3.94-9.7 5.81-13 1.87-3.3 5.57-8.58 8.21-11.73 2.65-3.15 7.96-8.21 11.81-11.25 3.85-3.04 9.48-6.84 12.5-8.44 3.02-1.6 8.43-3.9 12-5.11 3.57-1.21 9.65-2.79 13.5-3.5 3.85-0.71 10.82-1.33 15.5-1.37zm16 29.15c0 1.59 5.82 8.07 19.75 22.04 17.53 17.56 20.08 19.75 22.65 19.5 1.67-0.17 3.73-1.35 4.84-2.79 1.13-1.46 1.71-3.33 1.39-4.5-0.3-1.1-7.88-9.47-16.84-18.59-8.96-9.12-17.86-17.77-19.79-19.22-1.93-1.45-4.51-2.65-5.75-2.66-1.24-0.02-3.15 0.87-4.25 1.97-1.1 1.1-2 3.01-2 4.25zm-19.18 18.08c0.13 1.91 2.96 5.49 9.93 12.56 5.36 5.44 14.81 14.67 21 20.5 6.19 5.84 11.81 10.63 12.5 10.65 0.69 0.03 2.32-0.76 3.63-1.75q2.38-1.79 2.5-5.03c0.11-2.93-1.78-5.14-19.88-23.25-17.42-17.43-20.4-20.02-23.1-20.01-1.71 0-3.93 0.82-4.93 1.83-1.01 1-1.75 3.03-1.65 4.5zm-18.23 16.88c-0.43 1.26-0.53 3.19-0.23 4.29 0.3 1.1 9.11 10.66 19.59 21.25 10.48 10.59 19.95 19.48 21.05 19.75 1.1 0.27 3.35-0.17 5-1 1.65-0.82 3.23-2.4 3.5-3.5 0.27-1.1 0.28-2.79 0.02-3.75-0.26-0.96-9.15-10.11-19.75-20.33-10.6-10.22-20.28-19.11-21.52-19.75-1.24-0.64-2.36-1.14-2.5-1.11-0.14 0.04-1.18 0.47-2.32 0.96-1.13 0.49-2.42 1.93-2.84 3.19z"/>
		<path id="Path 3" class="s3" d="m455 299.26c5.77 5.91 10.61 10.75 10.75 10.75 0.14-0.01 0.25-0.12 0.26-0.26 0-0.14-4.84-4.98-10.75-10.75l-10.76-10.5zm-59-109c5.77 5.92 10.61 10.75 10.75 10.75 0.14 0 0.25-0.12 0.26-0.26 0-0.13-4.84-4.97-10.75-10.75l-10.76-10.5zm4 22c7.43 7.57 13.61 13.76 13.75 13.75 0.14 0 0.25-0.11 0.25-0.25 0.01-0.14-6.18-6.33-13.75-13.75l-13.75-13.5zm-3.5 15.74c4.95 4.96 9.23 9.02 9.5 9.02 0.27 0-3.42-4.06-8.21-9.01-4.79-4.95-9.06-9.01-9.5-9.01-0.43-0.01 3.26 4.05 8.21 9zm-21.5-1.5c3.57 3.59 6.73 6.52 7 6.52 0.27 0-2.29-2.93-5.69-6.51-3.41-3.58-6.56-6.51-7-6.52-0.45 0 2.12 2.93 5.69 6.51z"/>
	</g>
</svg>